<svg clip-rule="evenodd" fill-rule="evenodd" stroke-linejoin="round" stroke-miterlimit="2" viewBox="0 0 2068 414" xmlns="http://www.w3.org/2000/svg"><g fill-rule="nonzero"><path d="m342.11 207.83c-.692 12.512-10.975 22.532-23.5 22.9-7.971.177-15.528-3.629-20.13-10.14-2.25-3.244-5.943-5.197-9.89-5.23h-107.19c-3.946.029-7.64 1.979-9.89 5.22-4.487 6.415-11.839 10.246-19.668 10.246-13.166 0-24-10.834-24-24 0-.449.013-.898.038-1.346.697-12.51 10.976-22.527 23.5-22.9 7.96-.167 15.503 3.638 20.1 10.14 2.249 3.244 5.943 5.197 9.89 5.23h107.2c3.942-.031 7.633-1.98 9.88-5.22 4.486-6.415 11.839-10.246 19.668-10.246 13.166 0 24 10.834 24 24 0 .449-.013.898-.038 1.346m41.71-12-23.43-40.64c-3.846-6.674-10.987-10.8-18.69-10.8h-46.82c-7.705.004-14.845 4.133-18.69 10.81l-4.1 7.12c-2.142 3.711-6.116 6.003-10.4 6h-53.33c-4.285.003-8.258-2.289-10.4-6l-4.1-7.12c-3.845-6.677-10.985-10.806-18.69-10.81h-46.84c-7.711-.001-14.86 4.129-18.71 10.81l-23.43 40.63c-3.853 6.682-3.853 14.938 0 21.62l23.43 40.63c3.85 6.681 10.999 10.811 18.71 10.81h46.84c7.705-.004 14.845-4.133 18.69-10.81l4.1-7.12c2.142-3.711 6.115-6.003 10.4-6h53.33c4.281.001 8.249 2.293 10.39 6l4.11 7.12c3.845 6.677 10.985 10.806 18.69 10.81h46.85c7.703 0 14.844-4.126 18.69-10.8l23.43-40.64c3.853-6.682 3.853-14.938 0-21.62" fill="#12d0aa"/><path d="m401.9 375.17c-7.97.171-15.522-3.639-20.12-10.15-2.248-3.245-5.943-5.198-9.89-5.23h-273.78c-3.946.029-7.64 1.979-9.89 5.22-4.487 6.415-11.839 10.246-19.668 10.246-13.166 0-24-10.834-24-24 0-.449.013-.898.038-1.346.697-12.51 10.976-22.527 23.5-22.9 7.969-.171 15.522 3.639 20.12 10.15 2.248 3.245 5.942 5.198 9.89 5.23h273.78c3.946-.028 7.641-1.978 9.89-5.22 4.486-6.415 11.839-10.246 19.668-10.246 13.166 0 24 10.834 24 24 0 .449-.013.898-.038 1.346-.692 12.514-10.973 22.536-23.5 22.91m65.21-34.86-23.43-40.67c-3.844-6.678-10.985-10.808-18.69-10.81h-46.86c-7.691.018-14.812 4.146-18.65 10.81l-4.1 7.12c-2.142 3.711-6.116 6.003-10.4 6h-219.93c-4.285.003-8.258-2.289-10.4-6l-4.11-7.12c-3.845-6.677-10.985-10.806-18.69-10.81h-46.84c-7.704.006-14.843 4.135-18.69 10.81l-23.43 40.67c-3.853 6.682-3.853 14.938 0 21.62l23.42 40.63c3.864 6.655 11.004 10.76 18.7 10.75h46.86c7.705-.004 14.845-4.133 18.69-10.81l4.11-7.12c2.142-3.711 6.115-6.003 10.4-6h219.87c4.284-.003 8.258 2.289 10.4 6l4.1 7.12c3.845 6.677 10.985 10.806 18.69 10.81h46.85c7.707.004 14.852-4.123 18.7-10.8l23.43-40.63c3.853-6.682 3.853-14.938 0-21.62" fill="#08909b"/><path d="m235 86.32c-.01 0-.02 0-.03 0-13.21 0-24.08-10.87-24.08-24.08s10.87-24.08 24.08-24.08c13.206 0 24.074 10.864 24.08 24.07v.02c0 13.197-10.853 24.059-24.05 24.07m65.54-34.89-23.43-40.63c-3.848-6.673-10.987-10.798-18.69-10.8h-46.85c-7.703.002-14.842 4.127-18.69 10.8l-23.4 40.62c-3.849 6.683-3.849 14.937 0 21.62l23.43 40.63c3.844 6.678 10.985 10.808 18.69 10.81h46.85c7.705-.004 14.845-4.133 18.69-10.81l23.43-40.63c3.853-6.682 3.853-14.938 0-21.62" fill="#08909b"/></g><g fill="#fff"><path d="m893.91 235.15c0 16.667-5.643 30.243-16.93 40.73s-25.353 15.713-42.2 15.68c-16.86 0-30.927-5.227-42.2-15.68s-16.913-24.03-16.92-40.73v-105.61h31.37v104.48c0 9.18 2.483 16.403 7.45 21.67s11.737 7.9 20.31 7.9 15.38-2.633 20.42-7.9 7.56-12.49 7.56-21.67v-104.48h31.14z" fill-rule="nonzero"/><path d="m1030.29 209.2c0-12.933-.377-22.037-1.13-27.31-.9-6.167-2.78-10.98-5.64-14.44-5.42-6.62-13.243-9.93-23.47-9.93h-23.69v104.71h23.69c10.233 0 18.057-3.31 23.47-9.93 2.853-3.46 4.733-8.5 5.64-15.12.753-5.56 1.13-14.893 1.13-28m31.37 0c0 17.907-.453 29.643-1.36 35.21-1.953 12.333-6.917 22.487-14.89 30.46-10.233 10.233-24.373 15.347-42.42 15.34h-58v-160.65h58c18.047 0 32.187 5.113 42.42 15.34 8 8 12.963 17.93 14.89 29.79.907 5.42 1.36 16.93 1.36 34.53" fill-rule="nonzero"/><path d="m1112.46 129.54h31.37v160.67h-31.37z"/><g fill-rule="nonzero"><path d="m1303.65 157.52h-41.97v132.69h-31.37v-132.69h-41.97v-27.98h115.31z"/><path d="m1440.65 273.06c-12.667 12.34-27.56 18.51-44.68 18.51s-31.563-5.867-43.33-17.6c-7.22-7.227-11.887-16.48-14-27.76-1.207-6.62-1.81-18.73-1.81-36.33s.603-29.713 1.81-36.34c2.107-11.28 6.773-20.53 14-27.75 11.74-11.733 26.183-17.6 43.33-17.6s32.04 6.167 44.68 18.5l-20.76 20.76c-7.527-7.52-15.5-11.28-23.92-11.28-9.333 0-16.557 3.537-21.67 10.61-4.067 5.72-6.097 20.087-6.09 43.1 0 12.493.15 20.317.45 23.47 1.053 10.08 3.537 17.377 7.45 21.89 4.967 5.567 11.587 8.35 19.86 8.35 8.427 0 16.4-3.763 23.92-11.29z"/><path d="m1602.01 290.21h-31.37v-67.24h-54.39v67.24h-31.37v-160.67h31.37v65.67h54.39v-65.67h31.37z"/></g><path d="m1845.84 129.54h31.37v160.67h-31.37z"/><path d="m2036.53 129.54v98.39l-63.64-98.39h-27.98v160.67h31.37v-98.61l63.64 98.61h27.98v-160.67z" fill-rule="nonzero"/><path d="m1701.66 231.77 22.56-60.62 21.38 60.62zm64.55 58.44h35.89l-61-162h-34.5l-60.92 162h34.25l12.13-32.58h62.69z" fill-rule="nonzero"/><path d="m644.26 231.77 22.57-60.62 21.38 60.62zm64.55 58.44h35.89l-61-162h-34.5l-60.92 162h34.2l12.13-32.58h62.69z" fill-rule="nonzero"/></g></svg>